<mxfile host="app.diagrams.net" modified="2024-05-26T23:27:17.956Z" agent="Mozilla/5.0 (Windows NT 10.0; Win64; x64) AppleWebKit/537.36 (KHTML, like Gecko) Chrome/125.0.0.0 Safari/537.36" etag="u6gKQCjfWzbLJcWCamPn" version="24.4.8" type="github">
  <diagram name="Página-1" id="bwTF-ywCGJIkK29To4L_">
    <mxGraphModel dx="954" dy="566" grid="1" gridSize="10" guides="1" tooltips="1" connect="1" arrows="1" fold="1" page="1" pageScale="1" pageWidth="827" pageHeight="1169" math="0" shadow="0">
      <root>
        <mxCell id="0" />
        <mxCell id="1" parent="0" />
        <mxCell id="AU3XlOVcU2HEkQKYmwiP-1" value="Funcionário" style="swimlane;fontStyle=1;align=center;verticalAlign=top;childLayout=stackLayout;horizontal=1;startSize=26;horizontalStack=0;resizeParent=1;resizeParentMax=0;resizeLast=0;collapsible=1;marginBottom=0;whiteSpace=wrap;html=1;fillColor=#fff2cc;strokeColor=#d6b656;" vertex="1" parent="1">
          <mxGeometry x="260" y="222" width="220" height="148" as="geometry" />
        </mxCell>
        <mxCell id="AU3XlOVcU2HEkQKYmwiP-2" value="+ Name: String&lt;div style=&quot;&quot;&gt;&lt;font style=&quot;font-size: 12px;&quot;&gt;+&amp;nbsp;&lt;span style=&quot;background-color: rgb(248, 249, 250); color: rgb(32, 33, 36); font-family: inherit;&quot;&gt;salarioBruto: Double&lt;/span&gt;&lt;/font&gt;&lt;/div&gt;&lt;div style=&quot;&quot;&gt;&lt;span style=&quot;background-color: rgb(248, 249, 250); color: rgb(32, 33, 36); font-family: inherit;&quot;&gt;&lt;font style=&quot;font-size: 12px;&quot;&gt;+ imposto: Double&lt;/font&gt;&lt;/span&gt;&lt;/div&gt;&lt;div style=&quot;&quot;&gt;&lt;span style=&quot;background-color: rgb(248, 249, 250); color: rgb(32, 33, 36); font-family: inherit;&quot;&gt;&lt;font style=&quot;font-size: 12px;&quot;&gt;+ porcentagem: Double&lt;/font&gt;&lt;/span&gt;&lt;/div&gt;&lt;div style=&quot;&quot;&gt;&lt;span style=&quot;background-color: rgb(248, 249, 250); color: rgb(32, 33, 36); font-family: inherit;&quot;&gt;&lt;font style=&quot;font-size: 12px;&quot;&gt;&lt;br&gt;&lt;/font&gt;&lt;/span&gt;&lt;/div&gt;&lt;div style=&quot;&quot;&gt;&lt;span style=&quot;background-color: rgb(248, 249, 250); color: rgb(32, 33, 36); font-family: inherit;&quot;&gt;&lt;br&gt;&lt;/span&gt;&lt;/div&gt;" style="text;strokeColor=#d6b656;fillColor=#fff2cc;align=left;verticalAlign=top;spacingLeft=4;spacingRight=4;overflow=hidden;rotatable=0;points=[[0,0.5],[1,0.5]];portConstraint=eastwest;whiteSpace=wrap;html=1;" vertex="1" parent="AU3XlOVcU2HEkQKYmwiP-1">
          <mxGeometry y="26" width="220" height="68" as="geometry" />
        </mxCell>
        <mxCell id="AU3XlOVcU2HEkQKYmwiP-3" value="" style="line;strokeWidth=1;fillColor=none;align=left;verticalAlign=middle;spacingTop=-1;spacingLeft=3;spacingRight=3;rotatable=0;labelPosition=right;points=[];portConstraint=eastwest;strokeColor=inherit;" vertex="1" parent="AU3XlOVcU2HEkQKYmwiP-1">
          <mxGeometry y="94" width="220" as="geometry" />
        </mxCell>
        <mxCell id="AU3XlOVcU2HEkQKYmwiP-4" value="&lt;font style=&quot;font-size: 12px;&quot;&gt;+&amp;nbsp;&lt;span style=&quot;background-color: rgb(248, 249, 250); color: rgb(32, 33, 36); font-family: inherit;&quot;&gt;salarioLíquido&lt;/span&gt;&lt;span style=&quot;background-color: initial;&quot;&gt;(): Double&lt;/span&gt;&lt;/font&gt;&lt;div&gt;&lt;font style=&quot;font-size: 12px;&quot;&gt;&lt;span style=&quot;background-color: initial;&quot;&gt;+&amp;nbsp;&lt;/span&gt;&lt;/font&gt;&lt;span style=&quot;background-color: rgb(248, 249, 250); color: rgb(32, 33, 36); font-family: inherit;&quot;&gt;aumentarSalario(): Double&lt;/span&gt;&lt;/div&gt;" style="text;strokeColor=#d6b656;fillColor=#fff2cc;align=left;verticalAlign=top;spacingLeft=4;spacingRight=4;overflow=hidden;rotatable=0;points=[[0,0.5],[1,0.5]];portConstraint=eastwest;whiteSpace=wrap;html=1;" vertex="1" parent="AU3XlOVcU2HEkQKYmwiP-1">
          <mxGeometry y="94" width="220" height="54" as="geometry" />
        </mxCell>
        <mxCell id="AU3XlOVcU2HEkQKYmwiP-6" value="Atributos de&amp;nbsp;&lt;div&gt;visibilidade publica&lt;/div&gt;" style="text;html=1;align=center;verticalAlign=middle;resizable=0;points=[];autosize=1;strokeColor=none;fillColor=none;" vertex="1" parent="1">
          <mxGeometry x="485" y="260" width="120" height="40" as="geometry" />
        </mxCell>
        <mxCell id="AU3XlOVcU2HEkQKYmwiP-7" value="Métodos de&amp;nbsp;&lt;div&gt;visibilidade publica&lt;/div&gt;" style="text;html=1;align=center;verticalAlign=middle;resizable=0;points=[];autosize=1;strokeColor=none;fillColor=none;" vertex="1" parent="1">
          <mxGeometry x="485" y="320" width="120" height="40" as="geometry" />
        </mxCell>
        <mxCell id="AU3XlOVcU2HEkQKYmwiP-8" value="Classe Funcionário" style="text;html=1;align=center;verticalAlign=middle;resizable=0;points=[];autosize=1;strokeColor=none;fillColor=none;" vertex="1" parent="1">
          <mxGeometry x="480" y="220" width="130" height="30" as="geometry" />
        </mxCell>
        <mxCell id="AU3XlOVcU2HEkQKYmwiP-9" value="&lt;font style=&quot;font-size: 19px;&quot;&gt;Diagrama de Classe&lt;/font&gt;" style="text;html=1;align=center;verticalAlign=middle;resizable=0;points=[];autosize=1;strokeColor=none;fillColor=none;" vertex="1" parent="1">
          <mxGeometry x="265" y="3" width="200" height="40" as="geometry" />
        </mxCell>
        <mxCell id="AU3XlOVcU2HEkQKYmwiP-10" value="&lt;font style=&quot;font-size: 14px;&quot;&gt;Fazer um programa para ler os dados de um funcionário (nome, salário bruto e imposto). Em&lt;br&gt;seguida, mostrar os dados do funcionário (nome e salário líquido). Em seguida, aumentar o&lt;br&gt;salário do funcionário com base em uma porcentagem dada (somente o salário bruto é&lt;br&gt;afetado pela porcentagem) e mostrar novamente os dados do funcionário. Use a classe&lt;br&gt;projetada abaixo.&lt;/font&gt;" style="text;html=1;align=center;verticalAlign=middle;resizable=0;points=[];autosize=1;strokeColor=none;fillColor=none;" vertex="1" parent="1">
          <mxGeometry x="90" y="55" width="600" height="100" as="geometry" />
        </mxCell>
      </root>
    </mxGraphModel>
  </diagram>
</mxfile>
